<?xml version="1.0" encoding="UTF-8" standalone="no"?>
<svg 
  version="1.1" 
  xmlns="http://www.w3.org/2000/svg" 
  xmlns:xlink="http://www.w3.org/1999/xlink" 
  xmlns:svg="http://www.w3.org/2000/svg"
  xmlns:rdf="http://www.w3.org/1999/02/22-rdf-syntax-ns#"
  xmlns:cc="http://creativecommons.org/ns#"
  xmlns:dc="http://purl.org/dc/elements/1.1/"
  viewBox="0 0 768 768"
  width="768"
  height="768"
>
<style>svg {background-color: white; }</style>"
<metadata id="metadata1">
Created by https://svgstud.io and licensed under CC-BY-SA 4.0 license. Please attribute https://svgstud.io
</metadata>
<metadata id="prompt">
bass guitar with musical notes
</metadata>
<metadata id="version">
7
</metadata>
<metadata id="metadata2">
<rdf:RDF>
<cc:Work
    rdf:about="">
    <cc:license
    rdf:resource="http://creativecommons.org/licenses/by-sa/4.0/" />
    <dc:creator>
        <cc:Agent>
            <dc:title>https://svgstud.io</dc:title>
        </cc:Agent>
    </dc:creator>
</cc:Work>
<cc:License
    rdf:about="http://creativecommons.org/licenses/by-sa/4.0/">
    <cc:permits
    rdf:resource="http://creativecommons.org/ns#Reproduction" />
    <cc:permits
    rdf:resource="http://creativecommons.org/ns#Distribution" />
    <cc:requires
    rdf:resource="http://creativecommons.org/ns#Notice" />
    <cc:requires
    rdf:resource="http://creativecommons.org/ns#Attribution" />
    <cc:permits
    rdf:resource="http://creativecommons.org/ns#DerivativeWorks" />
    <cc:requires
    rdf:resource="http://creativecommons.org/ns#ShareAlike" />
</cc:License>
</rdf:RDF>
</metadata>
<metadata id="uid">
fb72c22d3f3104eec55d2e35e93ed80af1bbaacd4415c99a9b58fbd99337f1ba
</metadata>
<path stroke="none" fill="black" fill-rule="evenodd" d="M386.0,733.8C380.2,733.7 373.5,733.5 371.0,733.3C368.5,733.1 361.1,732.3 354.5,731.4C347.9,730.6 337.3,728.8 331.0,727.4C324.7,726.0 313.5,722.9 306.1,720.4C298.8,718.0 286.7,713.1 279.4,709.6C272.1,706.1 262.2,700.5 257.3,697.2C252.5,693.8 244.6,687.6 239.9,683.3C235.1,679.0 229.5,673.5 227.4,671.0C225.2,668.5 221.9,664.2 219.9,661.5C217.9,658.7 214.4,652.9 212.2,648.5C210.0,644.1 207.1,636.9 205.7,632.5C204.3,628.1 202.6,620.7 202.0,616.2C201.2,610.9 200.9,601.4 201.3,589.7C201.7,574.3 202.2,570.1 204.3,562.5C205.7,557.5 208.4,549.7 210.3,545.0C212.2,540.3 217.0,529.5 221.0,521.0C225.0,512.5 230.2,500.5 232.6,494.3C235.0,488.2 238.0,479.2 239.2,474.3C240.9,467.4 241.4,462.3 241.4,450.5C241.5,438.6 241.1,434.2 239.7,429.5C238.6,426.2 236.2,420.4 234.2,416.6C232.2,412.7 227.5,406.4 223.1,401.8C219.0,397.4 207.9,386.9 198.5,378.5C189.0,370.1 177.4,359.0 172.6,353.8C167.8,348.7 161.2,340.5 157.9,335.5C154.6,330.6 151.0,323.6 149.9,320.0C148.2,315.0 147.8,310.9 147.8,302.5C147.8,295.3 148.3,289.3 149.4,285.1C150.4,281.5 152.5,276.0 154.2,272.6C155.9,269.3 159.8,264.1 162.9,261.0C166.0,257.9 170.3,254.6 172.5,253.5C174.7,252.4 179.4,251.4 183.0,251.2C188.0,251.0 190.3,251.3 193.0,252.8C194.9,253.8 197.5,256.1 198.7,257.9C199.9,259.6 202.2,265.1 203.9,270.1C205.5,275.1 208.5,281.2 210.5,284.0C212.5,286.7 216.3,290.5 219.0,292.5C221.6,294.4 226.5,297.0 229.7,298.1C234.0,299.7 237.9,300.2 245.0,300.2C250.2,300.2 255.7,299.7 257.2,299.1C258.9,298.5 260.0,297.3 260.0,296.2C260.0,295.2 253.8,284.0 246.2,271.4C238.6,258.8 223.2,233.4 212.0,215.0C200.9,196.6 187.9,175.2 183.3,167.5C178.7,159.8 173.0,151.1 170.8,148.1C166.7,142.7 166.7,142.7 156.8,143.3C151.3,143.7 144.5,143.5 141.7,143.0C138.8,142.4 135.4,141.2 134.0,140.2C132.6,139.2 130.6,136.6 129.5,134.4C128.4,132.3 127.4,130.3 127.3,130.1C127.2,129.9 124.7,130.9 121.9,132.4C119.0,133.8 115.0,135.0 113.1,135.0C111.1,135.0 108.0,134.2 106.1,133.2C104.2,132.3 101.8,130.4 100.8,129.0C99.8,127.6 98.7,124.8 98.4,122.9C98.0,120.5 98.4,118.0 99.5,115.6C100.4,113.7 102.8,111.1 104.7,109.9C107.8,108.0 109.0,107.8 117.5,108.5C126.0,109.1 126.9,109.0 127.8,107.3C128.3,106.3 129.0,103.7 129.3,101.4C129.7,99.2 129.5,94.7 129.0,91.5C128.5,88.2 127.2,84.4 126.2,83.0C125.0,81.5 121.8,79.7 118.0,78.4C114.6,77.2 110.6,75.3 109.2,74.3C107.8,73.3 105.9,70.9 104.9,69.0C103.8,67.1 103.0,63.9 103.0,61.8C103.0,59.8 103.5,56.9 104.1,55.3C104.7,53.8 106.1,51.4 107.3,50.2C108.5,48.9 111.5,46.8 114.0,45.5C116.5,44.3 121.5,42.5 125.1,41.6C128.7,40.7 135.7,40.0 140.7,40.0C147.1,40.0 151.8,40.6 156.6,42.1C160.4,43.3 164.8,44.9 166.5,45.7C168.2,46.6 171.9,49.7 174.8,52.7C179.6,57.6 180.5,58.1 183.8,57.8C186.3,57.6 187.5,57.9 187.4,58.8C187.3,59.4 187.2,60.9 187.2,62.0C187.0,63.4 186.3,64.0 184.5,64.0C183.1,64.0 180.3,63.3 178.3,62.5C176.3,61.6 171.8,58.0 168.4,54.5C164.7,50.6 160.3,47.2 157.5,45.9C154.4,44.5 149.7,43.6 144.6,43.3C140.1,43.0 133.3,43.3 129.5,43.9C125.7,44.5 120.8,45.4 118.8,46.0C116.8,46.6 114.1,47.9 112.8,48.9C110.5,50.8 110.5,50.8 119.1,59.7C125.0,65.8 128.7,70.7 131.0,75.4C134.0,81.4 134.4,83.3 134.8,92.3C135.2,100.9 134.9,103.7 133.0,109.8C130.7,117.2 130.7,117.2 132.7,119.8C133.8,121.3 136.2,123.4 138.1,124.5C140.7,126.0 144.0,126.5 154.5,127.0C161.6,127.3 168.4,128.1 169.6,128.7C170.7,129.4 173.2,131.6 175.1,133.8C177.0,135.9 179.4,138.9 180.5,140.4C182.5,143.3 182.5,143.3 194.4,141.1C201.0,140.0 206.5,138.8 206.8,138.5C207.1,138.2 206.3,136.5 205.0,134.7C203.6,133.0 199.3,126.6 195.3,120.7C191.2,114.8 188.3,109.4 188.6,108.8C189.1,108.1 190.6,109.1 192.7,111.6C194.5,113.7 199.0,120.4 202.7,126.4C209.3,137.3 209.3,137.3 217.3,136.7C221.6,136.4 225.7,135.7 226.2,135.2C226.8,134.6 226.6,133.2 225.6,131.4C224.7,129.8 221.5,125.0 218.5,120.7C215.5,116.4 213.0,112.2 213.0,111.4C213.0,110.6 213.4,110.0 213.8,110.0C214.2,110.0 217.2,114.2 220.5,119.3C223.7,124.3 226.9,129.5 227.6,130.7C228.4,132.0 230.4,133.2 232.5,133.6C234.4,133.9 237.1,133.9 238.5,133.6C239.9,133.2 241.0,132.3 241.0,131.4C241.0,130.6 239.2,126.6 237.0,122.6C234.8,118.6 233.0,114.6 233.0,113.7C233.0,112.8 234.3,110.5 236.0,108.7C237.6,106.8 239.0,104.5 239.0,103.6C239.0,102.7 237.8,101.8 236.2,101.4C234.7,101.1 232.1,100.4 230.3,99.9C228.6,99.3 225.2,97.5 222.8,95.8C220.4,94.1 216.0,90.4 213.0,87.5C210.0,84.7 204.5,80.2 200.8,77.7C197.2,75.1 193.2,71.8 192.1,70.4C190.9,68.9 190.0,67.3 190.0,66.8C190.0,66.4 192.1,64.6 194.7,63.0C197.8,61.0 200.7,60.0 203.2,60.0C205.3,60.0 208.6,60.6 210.5,61.4C212.3,62.2 214.6,64.0 215.6,65.5C216.5,66.9 217.4,70.1 217.4,72.5C217.5,75.6 216.8,77.7 215.2,80.0C213.4,82.4 213.1,83.4 214.0,84.5C214.7,85.3 216.0,86.2 217.1,86.5C218.2,86.9 220.8,86.0 223.6,84.4C227.3,82.2 229.6,81.6 234.4,81.6C238.8,81.6 241.3,82.1 243.3,83.4C244.8,84.5 246.8,86.6 247.6,88.1C248.3,89.6 249.0,92.2 249.0,93.9C249.0,96.1 248.2,97.4 246.0,99.0C244.3,100.2 243.0,101.7 243.0,102.5C243.0,103.4 244.9,104.1 248.7,104.6C253.1,105.1 255.1,106.0 257.2,108.1C259.1,109.9 260.0,111.9 260.0,114.0C260.0,115.7 259.3,118.4 258.5,119.9C257.7,121.5 255.5,123.5 253.6,124.4C251.7,125.3 248.4,126.0 246.2,126.0C243.9,126.0 241.9,126.4 241.6,126.9C241.3,127.3 243.3,131.0 246.1,135.1C248.9,139.2 254.2,146.3 257.8,151.0C261.4,155.7 268.5,164.7 273.6,171.0C278.6,177.3 290.3,191.5 299.6,202.6C308.9,213.6 320.6,227.4 325.5,233.2C330.4,239.0 340.1,250.6 347.0,258.9C353.9,267.3 361.5,276.8 364.0,280.0C366.5,283.2 373.3,291.6 379.2,298.8C387.4,308.7 390.9,312.3 394.4,314.0C397.9,315.7 400.8,316.2 406.7,316.2C411.5,316.2 416.2,315.6 418.9,314.6C421.4,313.7 424.8,311.9 426.6,310.5C428.3,309.2 430.7,306.1 431.9,303.7C433.5,300.5 434.0,297.4 434.0,291.8C434.0,287.7 433.7,282.2 433.4,279.6C432.8,275.8 432.3,274.9 430.3,274.3C428.8,274.0 426.4,274.4 424.4,275.4C422.5,276.2 420.1,278.4 419.1,280.1C418.0,281.9 416.9,285.6 416.5,288.4C416.2,291.2 415.7,295.2 415.4,297.3C415.1,299.4 413.8,302.3 412.5,303.8C411.2,305.3 409.9,306.3 409.6,306.0C409.3,305.7 409.6,302.3 410.1,298.5C410.7,294.6 411.6,289.1 412.2,286.1C412.9,282.3 414.2,279.7 416.7,277.0C418.6,274.8 422.1,272.4 424.5,271.4C427.6,270.3 430.3,269.9 433.2,270.4C435.6,270.8 439.9,272.2 442.7,273.7C445.6,275.1 450.2,278.6 453.0,281.3C455.8,284.1 459.3,288.9 460.9,292.4C462.5,295.7 464.5,301.4 465.4,305.0C466.3,308.6 467.5,318.9 468.0,327.9C468.5,336.9 469.7,347.0 470.5,350.3C471.3,353.6 473.6,359.3 475.6,363.0C477.5,366.7 481.8,372.9 485.1,376.8C488.5,380.8 493.9,386.0 497.3,388.6C500.7,391.1 507.5,395.1 512.5,397.5C517.4,399.9 526.7,403.2 533.0,405.0C539.3,406.8 549.2,409.8 554.9,411.7C560.7,413.7 573.3,418.6 582.9,422.7C592.6,426.8 605.8,432.8 612.4,436.1C618.9,439.4 628.0,444.6 632.5,447.5C637.1,450.5 644.1,455.6 648.2,458.9C652.2,462.1 659.1,468.5 663.6,473.2C668.0,477.8 673.5,484.3 675.7,487.5C677.9,490.8 681.1,496.3 682.9,499.7C684.6,503.1 687.1,509.8 688.5,514.5C689.9,519.3 691.4,527.7 691.9,533.3C692.5,539.6 692.5,547.4 692.0,554.1C691.4,559.9 689.9,568.7 688.5,573.6C687.0,578.4 684.5,585.7 682.9,589.7C681.2,593.7 676.7,601.6 673.0,607.4C669.2,613.1 662.1,622.2 657.3,627.6C652.4,633.0 644.1,641.0 638.9,645.5C633.6,649.9 625.8,656.0 621.4,659.0C617.1,662.0 608.1,667.8 601.5,671.8C594.9,675.8 581.0,683.3 570.5,688.5C560.0,693.6 546.1,700.0 539.5,702.6C532.9,705.2 521.2,709.4 513.5,712.0C505.8,714.6 492.3,718.6 483.5,720.8C474.7,723.0 461.2,726.0 453.5,727.4C445.8,728.8 436.1,730.4 432.0,731.0C427.9,731.5 418.2,732.5 410.5,733.0C402.8,733.5 391.8,733.9 386.0,733.8zM261.9,690.0C262.8,690.0 259.3,685.8 254.2,680.7C249.1,675.5 244.8,670.6 244.6,669.8C244.5,669.0 243.0,665.5 241.2,662.1C239.4,658.8 238.2,656.0 238.5,656.0C238.8,656.0 243.4,659.0 248.7,662.6C254.0,666.2 261.0,670.5 264.2,672.1C267.4,673.7 270.0,674.6 270.0,674.2C270.0,673.7 267.6,671.3 264.8,668.9C261.9,666.5 254.2,659.4 247.7,653.0C241.1,646.7 233.6,638.5 230.9,634.9C228.2,631.2 224.0,624.0 221.6,618.9C219.2,613.7 216.5,606.4 215.6,602.5C214.7,598.6 213.5,590.3 213.0,584.0C212.5,577.7 212.0,568.9 211.9,564.5C211.9,556.5 211.9,556.5 209.9,562.0C208.8,565.0 207.2,571.5 206.4,576.5C205.2,583.3 204.9,589.6 205.3,602.0C205.7,614.2 206.3,620.5 207.8,626.2C209.0,630.4 211.5,637.3 213.4,641.4C215.3,645.6 219.2,652.3 222.0,656.5C224.9,660.6 230.4,667.0 234.4,670.7C238.3,674.5 243.1,678.7 245.0,680.2C246.9,681.7 251.2,684.5 254.4,686.4C257.7,688.4 261.1,690.0 261.9,690.0zM404.5,682.5C421.7,682.3 434.9,681.6 441.0,680.7C446.2,679.9 453.4,678.7 457.0,678.0C460.6,677.4 471.6,674.8 481.5,672.4C491.4,669.9 507.4,665.2 517.0,662.0C526.6,658.8 541.2,653.5 549.5,650.2C557.8,646.9 571.5,641.0 580.2,637.0C588.8,633.1 601.3,626.8 608.0,623.1C614.8,619.3 624.4,613.4 629.4,609.9C634.4,606.4 643.7,598.3 650.1,592.0C656.5,585.7 664.0,577.1 666.7,573.0C669.5,568.9 673.1,562.8 674.8,559.5C676.4,556.1 678.9,550.1 680.2,546.0C682.1,539.9 682.5,536.4 682.4,527.0C682.4,517.2 682.0,514.3 679.6,507.5C678.1,503.1 675.2,496.6 673.0,493.0C670.9,489.4 666.0,482.9 662.2,478.4C658.4,474.0 651.0,467.0 645.9,462.8C640.7,458.6 633.4,453.2 629.5,450.8C625.6,448.4 618.2,444.1 613.0,441.3C607.8,438.4 599.7,434.5 595.0,432.5C590.3,430.4 580.4,426.3 573.0,423.3C565.6,420.3 553.2,415.6 545.5,412.8C537.8,410.1 530.6,407.6 529.5,407.3C528.0,406.8 528.3,407.6 531.0,410.4C534.1,413.7 534.5,414.7 534.3,419.1C534.3,421.8 533.6,424.8 532.8,425.7C532.1,426.6 526.6,431.6 520.6,436.7C511.5,444.5 508.7,446.3 503.3,448.0C498.8,449.4 494.0,450.0 487.6,450.0C478.3,450.0 478.3,450.0 474.2,445.1C471.9,442.4 465.1,433.1 459.0,424.5C453.0,415.8 448.0,408.3 448.0,407.8C448.0,407.4 447.3,407.0 446.5,407.0C445.7,407.0 442.1,402.8 438.5,397.8C434.9,392.7 432.0,387.9 432.0,387.2C432.0,386.5 432.6,385.8 433.2,385.5C433.9,385.3 437.2,384.4 440.5,383.5C446.1,381.9 446.3,381.7 444.5,380.3C442.9,379.1 440.8,379.0 434.3,379.5C426.2,380.1 426.2,380.1 423.6,376.8C422.2,375.0 416.9,367.5 411.8,360.3C406.7,353.0 401.3,345.2 399.7,343.0C397.0,339.0 396.9,338.9 392.1,339.6C387.1,340.2 387.1,340.2 382.4,332.9C379.8,328.8 377.7,324.9 377.6,324.1C377.5,323.1 379.6,322.0 383.8,320.9C387.3,320.0 390.6,318.8 391.1,318.3C391.8,317.6 390.8,316.2 388.3,314.1C386.3,312.4 383.9,311.0 383.0,311.0C382.2,311.0 375.9,312.4 369.0,314.1C362.1,315.7 354.5,317.5 352.0,318.0C349.5,318.5 344.1,320.1 340.0,321.6C335.9,323.1 330.9,324.4 329.0,324.6C327.1,324.7 322.6,325.6 319.0,326.6C315.4,327.5 310.2,328.9 307.4,329.7C303.8,330.6 302.0,331.8 301.2,333.4C300.4,335.2 299.2,335.9 295.9,336.2C292.7,336.5 291.1,336.1 289.7,334.7C288.7,333.7 285.2,328.8 281.9,323.7C278.5,318.7 274.2,311.7 272.3,308.2C270.3,304.7 268.2,301.6 267.5,301.4C266.8,301.1 263.7,301.6 260.6,302.5C257.5,303.4 251.5,304.2 247.2,304.3C243.0,304.3 237.0,303.8 234.0,303.1C231.0,302.3 224.6,299.7 219.8,297.3C214.2,294.5 208.5,290.4 204.0,286.3C200.1,282.7 195.9,277.9 194.8,275.6C193.4,272.9 192.5,268.9 192.2,263.8C191.7,256.0 191.7,256.0 187.8,254.9C184.7,254.1 182.7,254.2 178.5,255.5C174.8,256.5 171.5,258.5 167.8,261.9C164.8,264.6 161.1,269.2 159.6,272.1C157.5,275.9 156.6,279.2 156.2,284.2C155.8,290.6 156.0,291.6 159.3,298.3C161.5,302.6 166.3,309.3 171.3,315.0C175.9,320.2 186.4,330.3 194.6,337.5C202.8,344.6 215.8,356.8 223.6,364.5C233.2,374.1 239.1,381.0 242.4,386.3C245.1,390.6 248.5,397.8 250.1,402.3C251.6,406.8 253.7,414.8 254.6,420.0C255.9,427.5 256.1,433.3 255.7,447.0C255.3,459.3 254.5,467.0 253.1,473.0C252.1,477.7 249.4,486.7 247.2,493.0C245.0,499.3 241.4,509.7 239.2,516.0C237.0,522.4 234.0,533.0 232.5,539.5C230.2,549.5 229.8,553.8 229.8,565.5C229.9,577.1 230.3,581.2 232.3,589.1C233.7,594.4 236.4,602.1 238.2,606.1C240.1,610.2 244.5,617.2 247.9,621.7C251.3,626.2 257.9,633.3 262.6,637.4C267.3,641.5 275.1,647.6 279.8,650.8C284.6,654.1 293.0,659.0 298.5,661.8C304.0,664.5 312.6,668.2 317.5,670.0C322.4,671.7 331.8,674.4 338.2,676.0C344.6,677.6 354.5,679.6 360.2,680.4C365.9,681.3 372.1,682.2 374.0,682.4C375.9,682.6 389.6,682.7 404.5,682.5zM517.0,643.0C515.9,643.0 515.0,642.7 515.0,642.2C515.0,641.8 517.5,639.2 520.5,636.5C524.7,632.7 525.8,631.1 525.1,630.1C524.3,628.9 523.5,628.8 520.8,629.7C519.0,630.3 513.9,632.4 509.5,634.4C504.5,636.7 499.9,638.0 497.3,638.0C495.0,638.0 490.6,637.1 487.5,635.9C484.0,634.6 481.1,632.7 479.6,630.7C478.2,628.9 475.8,624.0 474.1,619.7C472.5,615.4 469.8,609.8 468.1,607.2C466.5,604.6 464.8,601.3 464.5,599.8C464.1,598.2 464.2,597.0 464.7,597.0C465.3,597.0 466.5,597.9 467.5,599.0C468.5,600.2 470.8,602.0 472.6,603.1C475.0,604.5 477.3,605.0 480.9,604.9C485.7,604.7 486.2,604.9 491.4,609.8C494.4,612.7 497.8,615.0 498.9,615.0C500.0,615.0 510.0,610.8 521.2,605.6C532.4,600.4 549.1,592.5 558.5,588.0C567.9,583.5 576.3,579.1 577.2,578.2C578.2,577.4 579.0,576.2 579.0,575.6C578.9,575.0 577.1,573.2 574.9,571.7C570.9,568.9 570.9,568.9 567.9,571.5C566.2,572.8 562.5,574.6 559.7,575.4C556.8,576.3 553.3,577.2 551.9,577.5C549.7,578.0 548.7,577.5 545.6,573.8C543.5,571.4 541.0,567.9 540.0,566.0C539.0,564.0 537.9,560.9 537.5,559.0C537.0,556.3 537.5,554.3 539.5,550.5C541.0,547.8 542.9,544.9 543.8,544.2C544.7,543.6 546.2,543.0 547.3,543.0C548.3,543.0 550.5,544.4 552.2,546.1C554.7,548.5 555.0,549.4 553.9,550.0C553.2,550.5 550.7,551.2 548.5,551.5C546.3,551.9 543.7,552.4 542.7,552.7C541.3,553.0 541.0,554.0 541.2,556.3C541.4,558.8 542.3,559.9 545.5,561.7C547.7,562.9 551.8,564.4 554.6,565.0C558.4,565.8 560.4,565.8 562.3,564.9C563.7,564.3 565.1,563.2 565.2,562.6C565.4,562.0 565.4,558.9 565.2,555.6C564.8,550.4 564.5,549.6 561.8,548.1C560.1,547.2 557.8,545.7 556.6,544.7C554.6,543.0 554.6,543.0 558.5,544.5C560.7,545.3 563.9,547.6 565.7,549.4C567.4,551.3 569.3,554.5 569.9,556.7C570.5,558.8 571.0,561.5 571.0,562.6C571.0,563.8 571.9,565.9 573.0,567.3C574.1,568.7 577.0,571.1 579.5,572.7C582.2,574.3 584.4,576.7 585.0,578.4C585.5,580.0 586.0,583.8 586.0,586.9C586.0,590.0 585.6,593.1 585.2,593.7C584.8,594.4 581.1,596.6 577.0,598.6C572.9,600.6 568.4,603.0 567.0,604.0C565.6,605.0 561.6,606.8 558.0,608.0C554.5,609.2 549.5,611.2 546.8,612.6C543.2,614.4 542.0,615.6 542.0,617.3C542.0,618.6 543.1,620.7 544.5,622.0C546.8,624.1 547.3,624.2 550.8,623.2C552.9,622.5 556.5,620.7 558.8,619.0C562.1,616.7 563.0,615.3 563.0,613.1C563.0,610.2 563.0,610.2 566.0,611.6C567.6,612.5 569.9,612.9 571.0,612.5C572.1,612.2 573.3,610.7 573.6,609.2C574.0,607.7 574.8,605.9 575.4,605.1C576.0,604.3 578.3,602.9 580.5,601.9C582.7,600.9 585.5,600.0 586.8,600.0C588.0,600.0 589.9,600.9 591.0,602.0C592.1,603.1 593.0,605.1 593.0,606.5C593.0,608.4 591.1,610.4 584.8,615.5C580.2,619.0 571.1,625.0 564.6,628.7C558.0,632.4 550.4,637.1 547.6,639.2C544.8,641.3 542.0,643.0 541.3,643.0C540.5,643.0 538.1,641.8 535.9,640.3C531.9,637.7 531.9,637.7 525.4,640.3C521.9,641.8 518.1,643.0 517.0,643.0zM535.6,632.0C536.1,632.0 537.6,631.1 538.8,630.0C540.0,628.8 541.0,627.1 541.0,626.0C541.0,624.9 540.1,623.6 538.9,623.0C537.8,622.3 535.6,622.1 534.2,622.5C532.7,622.9 530.7,623.9 529.8,624.7C528.8,625.6 528.0,626.7 528.0,627.2C528.0,627.6 529.5,628.9 531.2,630.0C533.0,631.1 535.0,632.0 535.6,632.0zM507.6,597.7C505.3,598.1 504.0,597.9 504.0,597.2C504.0,596.6 505.3,595.1 507.0,593.9C508.6,592.7 510.2,591.0 510.5,590.2C510.8,589.4 509.7,587.3 508.0,585.4C506.4,583.5 504.7,580.8 504.4,579.5C504.1,578.1 504.0,576.0 504.3,574.8C504.7,573.5 505.6,571.6 506.4,570.5C507.9,568.6 507.9,568.6 508.0,571.2C508.0,572.7 508.5,575.0 509.1,576.4C509.8,577.7 511.7,579.5 513.4,580.2C515.1,580.9 519.3,581.4 522.8,581.4C526.2,581.3 529.7,580.7 530.5,580.0C531.5,579.1 532.0,576.8 532.0,572.6C532.1,566.5 532.1,566.5 534.5,569.2C535.8,570.7 537.2,573.9 537.5,576.3C537.9,578.7 538.0,581.8 537.8,583.1C537.6,584.6 536.1,586.2 533.5,587.7C531.3,588.9 525.4,591.6 520.3,593.5C515.3,595.5 509.5,597.4 507.6,597.7zM487.8,590.0C485.5,590.0 484.4,589.1 481.6,584.8C479.8,581.9 477.7,578.4 477.0,577.1C475.9,575.0 476.0,574.5 477.6,573.3C478.6,572.6 479.6,572.0 479.9,572.0C480.2,572.0 481.0,572.4 481.6,572.8C482.2,573.2 483.9,575.6 485.4,578.2C486.9,580.7 488.7,583.4 489.5,584.0C490.7,585.0 491.0,584.9 491.0,583.6C491.0,582.8 489.8,579.5 488.3,576.5C486.2,572.2 485.8,570.6 486.6,569.2C487.2,568.3 488.3,567.5 489.1,567.5C489.9,567.5 491.3,569.1 492.3,571.2C493.3,573.2 494.3,577.1 494.7,579.9C495.2,584.4 495.0,585.4 493.0,587.5C491.6,589.0 489.5,590.0 487.8,590.0zM512.1,568.0C509.7,568.0 509.0,567.6 509.0,566.1C509.0,565.1 508.0,563.6 506.8,562.7C504.9,561.5 504.7,560.8 505.6,559.3C506.2,558.3 507.9,556.9 509.5,556.1C511.0,555.4 514.0,554.5 516.1,554.3C518.5,553.9 520.6,554.2 521.6,555.0C522.4,555.8 523.8,557.7 524.7,559.3C526.2,562.3 526.2,562.3 520.6,561.6C516.3,561.0 515.0,561.2 514.9,562.2C514.8,562.9 514.9,564.5 515.0,565.8C515.1,567.6 514.6,568.0 512.1,568.0zM479.2,565.0C478.7,565.0 477.4,564.0 476.3,562.8C475.2,561.5 472.1,556.5 469.5,551.7C466.0,545.1 464.4,543.1 463.1,543.4C462.2,543.7 460.4,544.2 459.0,544.5C456.8,545.0 456.0,544.3 452.1,537.8C449.6,533.8 445.7,527.5 443.3,523.9C440.9,520.3 439.0,516.8 439.0,516.2C439.0,515.7 442.9,513.6 447.6,511.6C452.4,509.6 457.3,507.7 458.4,507.4C460.4,506.9 461.6,508.6 468.8,521.3C473.3,529.2 477.0,536.0 477.0,536.4C477.0,536.8 475.0,537.9 472.5,539.0C470.0,540.1 468.0,541.3 468.0,541.8C468.0,542.3 469.5,544.7 471.3,547.1C473.2,549.5 475.9,553.6 477.3,556.1C478.8,558.6 480.0,561.6 480.0,562.8C480.0,564.0 479.6,565.0 479.2,565.0zM428.5,555.6C424.8,555.8 421.0,555.4 418.6,554.5C416.4,553.7 413.2,551.9 411.4,550.5C409.5,549.1 407.6,547.1 407.0,546.0C406.4,544.9 405.1,539.7 404.0,534.4C402.9,529.0 402.2,524.5 402.4,524.2C402.7,524.0 404.7,524.5 407.0,525.4C409.2,526.3 412.5,527.0 414.3,527.0C416.0,527.0 420.6,525.6 424.5,524.0C428.3,522.3 432.2,521.0 433.2,521.0C434.1,521.0 435.7,522.2 436.8,523.8C437.8,525.3 441.2,531.1 444.4,536.8C447.5,542.4 450.0,547.4 450.0,547.9C450.0,548.4 446.5,550.3 442.2,552.0C437.3,554.1 432.3,555.4 428.5,555.6zM511.6,548.0C510.8,548.0 509.0,546.5 507.6,544.8C506.3,543.0 503.8,538.7 502.0,535.3C500.3,531.9 498.6,528.9 498.2,528.6C497.8,528.4 494.1,529.5 490.1,531.1C486.0,532.7 482.6,533.9 482.5,533.8C482.3,533.6 481.0,531.0 479.5,528.0C478.0,525.0 474.5,518.8 471.8,514.3C469.0,509.8 467.1,505.6 467.5,505.1C467.8,504.5 468.6,504.0 469.1,504.0C469.7,504.0 475.0,501.8 480.9,499.0C486.8,496.2 492.2,494.0 492.8,494.0C493.4,494.0 495.4,496.6 497.4,499.8C499.3,502.9 503.2,508.6 505.9,512.5C508.7,516.3 511.0,520.0 511.0,520.8C511.0,521.5 509.3,522.8 507.2,523.7C505.2,524.5 503.0,525.6 502.3,526.1C501.5,526.8 502.2,528.5 504.7,532.3C506.6,535.2 509.3,539.6 510.6,542.2C511.9,544.8 513.0,547.2 513.0,547.5C513.0,547.8 512.3,548.0 511.6,548.0zM517.2,518.0C516.7,518.0 515.6,517.2 514.8,516.2C514.0,515.3 510.0,509.6 506.1,503.7C502.1,497.7 499.1,492.3 499.3,491.6C499.6,490.9 502.6,489.5 506.1,488.5C509.6,487.4 513.3,485.6 514.3,484.4C515.9,482.5 516.7,482.3 519.0,483.2C520.5,483.7 522.5,484.9 523.3,485.8C524.2,486.7 526.0,490.9 527.4,495.0C528.7,499.1 530.4,503.9 531.1,505.7C532.2,508.3 532.1,509.1 531.0,510.5C530.2,511.4 527.0,513.5 523.8,515.1C520.7,516.7 517.7,518.0 517.2,518.0zM397.1,516.9C396.8,516.9 395.9,516.6 395.2,516.3C394.5,516.0 393.0,514.0 391.8,511.7C390.7,509.4 388.9,505.1 387.9,502.1C386.8,499.1 386.0,495.9 386.0,495.0C386.0,493.7 388.6,492.2 395.5,489.5C402.7,486.6 405.4,486.0 406.2,486.8C406.8,487.4 409.5,492.6 412.2,498.2C415.9,506.3 416.7,508.7 415.7,509.7C415.0,510.3 410.7,512.3 406.1,513.9C401.4,515.6 397.4,517.0 397.1,516.9zM645.8,516.5C643.4,516.7 639.5,516.5 637.2,516.0C634.8,515.5 631.4,514.2 629.7,513.2C627.9,512.2 625.9,510.3 625.2,508.9C624.3,507.2 624.1,504.2 624.5,498.5C624.9,494.1 625.7,489.6 626.4,488.5C627.2,487.3 630.3,485.7 633.9,484.7C637.9,483.5 641.2,483.1 643.2,483.6C645.0,483.9 648.2,485.0 650.5,486.0C652.7,486.9 655.1,488.5 655.9,489.4C657.0,490.7 657.1,493.1 656.6,500.1C656.2,505.0 655.5,510.2 655.0,511.5C654.5,512.8 653.2,514.4 652.1,515.0C651.0,515.5 648.2,516.2 645.8,516.5zM431.6,503.0C430.9,503.0 427.2,498.3 423.2,492.5C419.2,486.7 416.0,481.5 416.0,481.0C416.0,480.4 416.1,480.0 416.3,480.0C416.5,480.0 421.5,478.2 427.6,476.0C433.6,473.8 439.0,472.0 439.6,472.0C440.2,472.0 443.2,476.7 446.3,482.5C449.4,488.3 452.0,493.6 452.0,494.4C452.0,495.1 450.8,496.2 449.2,496.8C447.7,497.4 443.4,499.1 439.6,500.5C435.9,501.9 432.2,503.0 431.6,503.0zM593.4,498.8C590.7,499.2 586.7,499.3 584.5,498.9C582.3,498.5 579.3,497.7 577.8,497.1C576.3,496.5 574.2,495.2 573.0,494.0C571.3,492.3 571.0,490.7 571.0,483.0C571.0,475.3 571.3,473.7 573.0,472.0C574.2,470.8 576.2,469.5 577.6,469.0C579.0,468.4 581.8,468.0 583.9,468.0C586.0,468.0 589.7,468.7 592.3,469.6C594.9,470.5 598.1,472.5 599.5,474.2C601.5,476.6 602.0,478.2 602.0,482.8C602.0,485.9 601.5,490.2 601.1,492.4C600.6,494.5 599.7,496.7 599.2,497.2C598.7,497.7 596.1,498.4 593.4,498.8zM645.6,495.9C649.0,496.0 651.2,495.5 652.0,494.5C652.6,493.7 652.9,492.2 652.5,491.1C652.2,490.1 650.3,488.5 648.2,487.7C646.2,486.9 642.4,486.0 639.8,485.6C636.9,485.2 634.3,485.3 633.0,486.0C631.8,486.6 631.0,488.1 631.0,489.5C631.0,491.0 631.9,492.4 633.2,493.1C634.4,493.7 636.5,494.6 637.9,495.1C639.3,495.5 642.8,495.9 645.6,495.9zM466.0,490.0C465.5,490.0 464.0,488.5 462.7,486.8C461.4,485.0 458.0,480.2 455.1,476.2C452.3,472.2 450.2,468.5 450.5,468.0C450.8,467.5 455.5,465.7 461.0,464.0C466.4,462.2 471.3,461.1 471.8,461.4C472.3,461.7 475.3,466.5 478.4,472.1C483.3,480.5 484.0,482.4 482.9,483.5C482.1,484.2 478.2,486.0 474.2,487.4C470.2,488.8 466.5,490.0 466.0,490.0zM589.5,480.0C594.7,480.0 597.1,479.6 598.0,478.5C599.0,477.3 599.0,476.7 597.9,475.3C597.1,474.4 594.7,472.9 592.5,471.9C590.3,470.9 586.5,470.0 584.0,470.0C581.5,470.0 578.5,470.3 577.2,470.6C575.6,471.1 575.0,471.9 575.2,473.3C575.4,474.5 577.0,476.5 578.9,477.7C581.7,479.6 583.7,480.0 589.5,480.0zM496.6,479.0C495.8,479.0 493.2,476.2 490.9,472.8C488.6,469.3 485.4,464.9 483.8,462.9C481.5,459.9 481.3,459.0 482.4,458.1C483.1,457.5 485.1,456.7 486.9,456.4C489.4,455.9 490.6,456.2 492.6,458.1C493.9,459.3 497.0,463.6 499.5,467.6C502.0,471.5 504.0,475.0 504.0,475.4C504.0,475.7 502.7,476.6 501.0,477.5C499.4,478.3 497.4,479.0 496.6,479.0zM617.6,476.9C613.7,476.9 609.3,476.5 607.9,476.0C606.5,475.6 604.1,474.5 602.7,473.5C600.2,471.9 600.0,471.3 600.0,464.4C600.0,460.3 600.6,455.4 601.4,453.6C602.2,451.7 603.4,449.9 604.1,449.5C604.9,449.0 605.1,449.1 604.6,449.8C604.2,450.5 605.0,452.1 606.3,453.4C607.7,454.8 610.5,456.2 612.5,456.6C614.6,457.0 619.4,457.0 623.2,456.7C630.2,456.1 630.2,456.1 629.8,464.7C629.4,472.1 629.0,473.6 627.1,475.2C625.3,476.6 623.2,477.0 617.6,476.9zM412.5,476.0C411.7,476.0 409.3,473.4 407.2,470.2C405.1,467.1 399.2,457.4 394.1,448.6C388.9,439.9 384.5,431.6 384.1,430.2C383.6,428.6 382.5,427.3 381.1,427.0C379.4,426.6 377.0,423.5 372.9,416.5C369.7,411.0 367.1,406.0 367.0,405.3C367.0,404.6 369.3,403.4 372.1,402.6C374.9,401.7 378.6,400.8 380.3,400.5C383.4,399.9 383.7,400.2 390.3,409.5C394.1,414.8 396.9,419.8 396.6,420.5C396.4,421.2 393.9,422.5 391.1,423.5C388.3,424.4 385.8,425.6 385.4,426.1C385.1,426.6 386.4,429.2 388.3,431.8C390.2,434.4 395.0,441.6 398.9,447.8C402.8,454.0 407.8,462.3 410.0,466.3C412.2,470.4 414.0,474.2 414.0,474.8C414.0,475.5 413.3,476.0 412.5,476.0zM433.6,465.0C432.8,465.0 431.0,463.5 429.6,461.8C428.3,460.0 422.2,450.4 416.0,440.5C409.9,430.6 403.3,420.9 401.4,419.0C399.5,417.1 395.4,411.7 392.4,407.1C388.2,400.7 387.2,398.5 388.2,397.9C388.9,397.4 391.1,396.6 393.0,396.0C394.9,395.5 397.3,395.0 398.2,395.0C399.2,395.0 402.6,398.9 406.5,404.5C411.8,412.2 412.9,414.4 412.0,415.5C411.3,416.3 410.0,417.2 408.9,417.5C407.9,417.9 407.0,418.6 407.0,419.3C407.0,419.9 407.8,421.3 408.9,422.4C409.9,423.6 415.3,431.5 420.8,440.0C426.3,448.6 431.7,457.5 432.9,459.8C434.0,462.0 435.0,464.2 435.0,464.5C435.0,464.8 434.3,465.0 433.6,465.0zM459.0,460.0C458.6,460.0 456.5,458.1 454.4,455.7C452.2,453.4 444.6,442.8 437.5,432.2C424.5,412.9 424.5,412.9 420.7,413.4C416.9,413.8 416.9,413.8 411.0,404.9C407.7,400.1 405.0,395.4 405.0,394.6C405.0,393.7 406.5,392.7 408.8,392.1C410.8,391.6 415.1,390.5 418.3,389.6C421.6,388.8 424.8,388.4 425.5,388.6C426.1,388.9 428.9,392.1 431.6,395.7C434.3,399.3 437.1,403.1 437.8,404.1C438.6,405.1 438.9,406.3 438.6,406.9C438.2,407.4 435.7,408.6 433.0,409.5C430.2,410.4 428.0,411.5 428.0,412.0C428.0,412.5 429.1,414.1 430.4,415.7C431.7,417.2 436.7,424.1 441.6,431.0C446.4,437.9 452.8,446.9 455.7,451.1C458.6,455.3 460.7,459.0 460.3,459.4C460.0,459.7 459.3,460.0 459.0,460.0zM561.3,457.9C558.1,457.9 553.5,457.1 551.0,456.2C548.4,455.2 546.0,453.4 545.2,452.0C544.3,450.2 544.1,447.2 544.5,441.5C544.9,437.1 545.6,433.1 546.1,432.6C546.6,432.0 548.0,432.6 549.7,434.2C551.3,435.6 554.0,437.2 555.9,437.9C557.8,438.5 561.4,439.0 564.0,439.0C567.2,439.0 569.5,438.4 571.3,437.0C572.7,435.9 574.1,435.0 574.4,435.0C574.7,435.0 575.0,438.1 575.0,441.9C575.0,445.7 574.7,450.2 574.4,452.0C573.9,454.4 572.9,455.6 570.4,456.6C568.6,457.4 564.5,458.0 561.3,457.9zM350.4,435.7C346.7,436.2 345.9,435.9 342.2,432.6C339.4,430.0 337.3,426.8 335.4,422.0C333.9,418.2 333.0,414.4 333.3,413.6C333.7,412.5 335.2,412.0 337.9,412.0C340.0,412.0 345.7,410.9 350.5,409.5C356.6,407.7 359.6,407.2 360.5,408.0C361.2,408.5 364.1,413.1 366.9,418.1C369.8,423.2 371.9,427.8 371.6,428.6C371.3,429.3 367.4,431.1 362.9,432.5C358.3,433.9 352.7,435.3 350.4,435.7zM352.1,398.4C351.6,398.8 350.0,397.6 348.6,395.9C347.1,394.2 343.1,387.9 339.5,382.0C336.0,376.0 331.7,368.4 330.0,365.0C326.9,358.8 326.9,358.8 322.2,359.6C319.6,360.0 315.5,360.4 313.0,360.5C308.6,360.5 308.5,360.4 305.3,355.1C303.5,352.1 301.3,347.7 300.4,345.4C299.5,343.0 299.0,340.3 299.4,339.4C300.0,337.9 300.2,337.9 302.6,339.5C305.0,341.0 305.7,341.0 315.3,338.6C321.0,337.2 326.2,336.0 326.9,336.0C327.7,336.0 328.9,336.8 329.7,337.8C330.4,338.7 332.6,342.3 334.6,345.8C336.6,349.2 338.0,352.7 337.7,353.4C337.4,354.2 335.5,355.4 333.6,356.1C331.6,356.8 330.0,357.8 330.0,358.4C330.0,358.9 330.6,360.1 331.3,360.9C332.1,361.8 336.7,369.0 341.5,377.0C346.3,385.0 350.9,392.9 351.6,394.7C352.4,396.5 352.6,398.1 352.1,398.4zM375.0,394.0C373.6,394.0 370.6,390.3 364.4,380.8C359.7,373.6 354.0,364.7 351.8,361.1C349.6,357.5 346.3,352.9 344.6,351.0C342.9,349.1 339.7,344.4 337.6,340.7C335.5,336.9 334.0,333.6 334.3,333.4C334.6,333.1 337.2,332.2 340.1,331.4C343.1,330.7 346.9,330.0 348.5,330.0C351.1,330.1 352.2,331.1 356.7,337.8C361.5,344.9 361.8,345.6 360.3,347.2C359.4,348.2 358.3,349.0 357.8,349.0C357.3,349.0 355.4,349.6 353.5,350.4C350.1,351.8 350.1,351.8 363.6,372.0C371.0,383.1 377.0,392.5 377.0,393.1C377.0,393.6 376.1,394.0 375.0,394.0zM397.0,386.0C396.5,386.0 389.6,377.2 381.8,366.5C373.9,355.8 364.9,343.3 361.8,338.8C358.6,334.2 356.0,329.7 356.0,328.8C356.0,327.6 357.5,326.8 361.8,326.0C364.9,325.4 368.4,324.6 369.5,324.4C370.6,324.2 372.0,324.3 372.6,324.7C373.2,325.2 375.6,328.5 377.9,332.2C380.3,335.9 382.0,339.7 381.8,340.7C381.6,341.8 379.9,342.8 377.0,343.5C374.2,344.2 372.6,345.2 372.8,346.0C373.0,346.7 377.5,353.6 382.9,361.4C388.3,369.1 393.9,377.3 395.4,379.4C396.8,381.5 398.0,383.9 398.0,384.6C398.0,385.4 397.6,386.0 397.0,386.0zM405.2,384.0C404.7,384.0 403.4,383.0 402.3,381.8C401.2,380.5 396.8,374.2 392.6,367.7C388.4,361.2 384.3,354.5 383.4,352.9C382.6,351.2 382.1,349.6 382.3,349.4C382.5,349.1 384.5,351.1 386.7,353.7C388.9,356.3 394.1,363.6 398.3,369.8C402.6,376.0 406.0,381.7 406.0,382.5C406.0,383.3 405.6,384.0 405.2,384.0zM171.5,344.0C171.8,344.0 171.7,343.3 171.4,342.5C171.0,341.7 171.3,341.0 171.8,341.0C172.4,341.0 173.2,341.4 173.5,342.0C173.8,342.6 174.5,343.0 175.1,343.0C175.6,343.0 176.0,341.3 176.0,339.2C176.0,336.7 174.5,332.7 171.5,327.1C169.0,322.5 165.6,317.0 163.9,314.9C162.2,312.7 160.4,311.0 159.8,311.0C159.2,311.0 158.9,313.9 159.2,318.8C159.4,324.2 160.2,327.9 161.8,331.1C163.0,333.6 165.6,337.5 167.6,339.8C169.5,342.1 171.3,344.0 171.5,344.0zM298.5,326.0C298.8,326.0 302.9,324.9 307.7,323.5C312.6,322.1 318.4,320.9 320.8,320.8C324.3,320.8 325.1,320.4 325.6,318.5C326.0,316.9 325.0,314.7 321.9,310.6C319.6,307.5 317.0,305.0 316.1,305.0C315.2,305.0 309.0,306.3 302.2,307.9C295.4,309.5 289.7,311.0 289.4,311.3C289.1,311.6 289.5,313.1 290.3,314.7C291.2,316.2 293.2,319.4 294.9,321.8C296.6,324.1 298.2,326.0 298.5,326.0zM331.3,317.0C333.1,317.0 337.9,316.1 342.0,314.9C346.1,313.8 349.9,312.5 350.5,312.1C351.0,311.6 353.5,311.0 356.0,310.7C358.5,310.4 364.7,309.1 369.8,308.0C375.6,306.6 379.0,305.3 379.0,304.5C379.0,303.8 377.0,301.0 374.7,298.4C370.3,293.6 370.3,293.6 362.9,294.9C358.8,295.7 352.7,297.1 349.2,298.2C345.8,299.2 342.6,299.9 342.2,299.6C341.7,299.3 338.7,299.8 335.4,300.6C332.2,301.4 327.8,302.6 325.8,303.1C323.7,303.6 322.0,304.6 322.0,305.3C322.0,306.0 323.4,308.9 325.0,311.8C327.7,316.4 328.4,317.0 331.3,317.0zM300.3,303.8C307.5,302.2 313.9,300.5 314.4,300.0C314.9,299.5 314.2,297.3 312.7,294.8C311.3,292.4 309.3,289.6 308.1,288.6C306.0,286.7 305.8,286.7 293.4,289.6C286.5,291.2 280.4,292.8 279.8,293.1C279.1,293.6 279.6,295.4 281.5,298.7C283.0,301.3 284.9,304.2 285.6,305.1C286.9,306.5 288.2,306.4 300.3,303.8zM320.9,298.5C322.9,298.2 327.5,297.2 331.2,296.4C335.0,295.5 338.0,294.5 338.0,294.0C338.0,293.6 338.8,293.4 339.8,293.6C340.7,293.9 346.4,292.9 352.4,291.5C358.4,290.1 364.0,288.5 364.8,288.1C366.1,287.4 365.4,286.2 361.3,281.9C356.2,276.6 356.2,276.6 347.9,278.4C343.3,279.4 337.6,280.9 335.2,281.7C332.8,282.5 330.0,282.8 329.0,282.5C327.9,282.2 323.4,282.9 319.0,284.1C314.1,285.4 311.0,286.7 311.0,287.5C311.0,288.3 312.4,291.2 314.2,294.0C317.3,299.0 317.5,299.1 320.9,298.5zM277.1,289.0C277.6,289.0 283.7,287.6 290.5,285.9C297.4,284.2 303.0,282.3 303.0,281.8C303.0,281.2 302.0,279.0 300.8,276.9C299.6,274.7 297.6,272.3 296.4,271.5C294.5,270.3 293.0,270.4 282.4,273.0C275.9,274.6 270.0,276.2 269.3,276.5C268.2,276.9 268.2,277.5 269.4,279.9C270.3,281.5 272.1,284.2 273.6,285.9C275.0,287.6 276.6,289.0 277.1,289.0zM307.2,281.0C308.5,281.0 312.7,280.4 316.6,279.6C320.5,278.9 324.2,278.0 324.7,277.7C325.3,277.3 331.5,275.9 338.5,274.6C345.5,273.2 351.5,271.8 351.8,271.5C352.1,271.2 350.5,268.9 348.3,266.3C345.5,262.9 343.4,261.4 341.3,261.2C339.7,261.0 334.1,261.9 328.9,263.0C323.7,264.2 318.1,265.3 316.5,265.5C314.9,265.7 310.5,266.8 306.8,268.0C303.1,269.1 299.9,270.4 299.6,270.9C299.3,271.3 300.4,273.8 302.0,276.4C304.1,279.7 305.6,281.0 307.2,281.0zM268.0,271.7C269.9,271.5 276.0,270.3 281.5,269.0C287.0,267.7 291.7,266.5 291.9,266.4C292.1,266.2 292.0,265.0 291.6,263.6C291.3,262.2 289.6,259.5 287.9,257.5C286.2,255.6 284.1,254.0 283.2,254.0C282.3,254.0 276.2,255.2 269.6,256.6C262.9,258.1 257.3,259.4 257.1,259.6C256.9,259.8 257.2,261.1 257.8,262.6C258.5,264.0 260.2,266.7 261.8,268.6C264.1,271.6 265.0,272.1 268.0,271.7zM299.5,264.4C301.1,264.1 304.9,263.4 307.8,262.9C311.4,262.2 313.0,261.4 313.0,260.3C313.0,259.4 313.6,259.0 314.5,259.4C315.3,259.7 318.6,259.5 321.7,258.9C324.9,258.4 329.9,257.5 332.8,256.9C336.1,256.2 338.0,255.4 338.0,254.4C338.0,253.6 336.3,251.2 334.3,248.9C330.8,245.0 330.4,244.9 326.1,245.5C323.6,245.8 318.8,246.8 315.5,247.7C312.2,248.6 307.5,249.4 305.0,249.5C302.5,249.6 297.9,250.5 294.8,251.4C290.6,252.7 289.0,253.6 289.0,254.9C289.0,255.8 290.1,258.1 291.5,260.0C292.9,261.9 294.5,263.7 295.2,264.1C295.9,264.5 297.8,264.6 299.5,264.4zM263.8,253.4C269.1,252.1 274.6,251.0 276.0,251.0C277.4,251.0 279.1,250.6 279.9,250.1C281.1,249.3 281.1,248.7 280.1,246.2C279.4,244.6 277.6,242.1 276.2,240.7C273.5,238.2 273.5,238.2 260.5,241.2C253.3,242.9 247.4,244.4 247.2,244.5C247.0,244.7 247.6,246.3 248.5,248.2C249.5,250.0 251.1,252.4 252.2,253.6C254.1,255.7 254.1,255.7 263.8,253.4zM285.5,248.0C286.9,248.0 291.2,247.5 295.2,246.8C299.2,246.1 302.7,245.3 303.0,244.9C303.3,244.5 308.2,243.5 313.9,242.7C319.6,241.8 324.7,240.7 325.3,240.1C325.9,239.5 325.3,238.0 323.6,235.8C322.2,233.9 320.0,231.8 318.8,231.1C316.9,230.1 314.8,230.4 306.6,232.5C298.6,234.5 296.4,234.7 295.1,233.7C294.2,233.1 293.2,232.1 292.8,231.5C292.4,231.0 292.3,230.3 292.5,229.9C292.8,229.6 295.4,229.0 298.5,228.6C301.5,228.3 306.2,227.5 309.0,226.9C314.0,225.8 314.0,225.8 312.3,222.8C311.3,221.2 309.1,218.5 307.3,217.0C304.2,214.2 304.2,214.2 296.8,215.9C292.8,216.9 288.6,218.1 287.4,218.8C286.3,219.4 284.8,219.5 284.1,219.1C283.4,218.6 279.9,219.1 276.1,220.2C272.5,221.3 268.9,222.7 268.2,223.3C267.3,224.0 266.2,224.0 264.6,223.2C262.9,222.4 259.5,222.8 250.1,225.0C243.3,226.6 237.5,228.1 237.2,228.5C236.9,228.8 237.4,230.7 238.5,232.6C239.5,234.5 241.4,237.2 242.6,238.5C244.7,240.8 244.9,240.8 250.1,239.5C253.1,238.8 259.0,237.4 263.2,236.5C269.6,235.1 271.0,234.5 271.0,232.9C271.0,231.9 271.4,231.0 271.8,231.0C272.2,231.0 273.1,231.5 273.7,232.1C274.5,232.9 276.9,232.8 282.4,232.0C288.4,231.0 290.3,231.0 291.5,232.0C292.3,232.7 292.8,233.6 292.5,234.0C292.3,234.4 290.6,235.0 288.8,235.4C287.1,235.7 283.9,236.5 281.8,237.1C279.7,237.6 278.0,238.5 278.0,239.1C278.0,239.6 279.1,241.8 280.5,244.0C282.3,246.9 283.7,248.0 285.5,248.0zM235.9,223.7C237.3,223.5 243.4,222.2 249.5,221.0C255.6,219.7 260.7,218.5 260.9,218.3C261.2,218.1 260.4,216.2 259.2,214.1C258.0,212.0 257.0,209.9 257.0,209.5C257.0,209.0 258.4,210.6 260.1,213.0C263.2,217.3 263.2,217.3 269.1,216.6C272.4,216.3 276.2,215.7 277.6,215.4C279.5,214.9 279.9,214.3 279.4,212.8C278.9,211.1 279.1,211.0 280.8,212.1C282.4,213.1 284.4,213.1 291.1,211.9C295.7,211.1 299.5,209.9 299.8,209.2C300.0,208.6 297.7,205.5 294.8,202.4C289.4,196.8 289.4,196.8 281.1,198.5C274.0,200.1 272.9,200.6 273.3,202.2C273.8,203.9 273.6,203.9 270.9,202.0C268.1,199.9 268.1,199.9 260.5,202.5C256.3,203.9 252.4,204.8 251.9,204.5C251.4,204.2 246.6,204.8 241.3,205.9C235.9,207.0 229.8,208.2 227.7,208.5C224.9,209.0 224.0,209.5 224.4,210.6C224.7,211.4 226.8,214.8 229.1,218.1C232.7,223.4 233.5,224.1 235.9,223.7zM230.3,203.9C234.8,203.0 240.6,201.9 243.2,201.5C247.5,201.0 248.0,200.6 248.0,198.4C248.0,196.1 248.1,196.0 250.3,197.5C251.7,198.4 253.9,198.8 255.6,198.5C257.2,198.3 260.2,197.8 262.2,197.5C264.3,197.2 266.0,196.4 266.0,195.8C266.0,195.2 264.2,191.9 262.0,188.5C259.8,185.1 256.8,181.2 255.4,179.9C253.1,177.8 252.8,177.7 251.9,179.2C251.4,180.1 249.2,181.1 246.9,181.5C244.7,181.9 242.6,182.9 242.3,183.8C241.9,184.6 242.4,186.7 243.4,188.4C244.7,190.8 244.1,190.4 240.6,186.6C237.2,182.9 235.7,181.9 234.3,182.5C233.3,182.9 230.5,183.9 228.1,184.6C225.8,185.4 220.9,186.3 217.4,186.6C213.6,187.0 211.0,187.7 211.0,188.4C211.0,189.1 212.6,192.3 214.6,195.6C216.5,198.8 219.0,202.4 220.1,203.6C222.0,205.7 222.1,205.7 230.3,203.9zM275.0,194.6C278.6,194.3 282.5,193.7 283.8,193.4C285.0,193.0 286.0,192.5 286.0,192.1C286.0,191.8 283.7,188.7 281.0,185.3C278.2,181.8 275.1,178.6 274.1,178.1C272.9,177.4 270.1,177.4 265.9,178.1C262.4,178.7 259.4,179.3 259.2,179.5C259.0,179.7 259.4,180.9 260.0,182.2C260.7,183.4 262.9,186.9 264.9,189.9C268.5,195.2 268.5,195.2 275.0,194.6zM209.3,184.0C210.0,184.0 215.7,182.9 222.0,181.6C228.3,180.3 233.6,178.8 233.8,178.1C234.0,177.5 232.7,174.7 231.0,171.9C229.2,169.2 228.0,166.7 228.3,166.4C228.6,166.1 230.1,167.8 231.8,170.2C233.4,172.6 235.6,175.2 236.6,176.1C238.1,177.3 240.1,177.6 245.8,177.2C249.9,177.0 253.0,176.3 253.0,175.7C253.0,175.1 251.6,172.5 249.9,169.8C248.2,167.1 247.0,164.7 247.3,164.4C247.5,164.1 249.4,166.2 251.5,169.0C255.2,174.0 255.2,174.0 260.9,174.0C264.0,174.0 267.4,173.4 268.3,172.7C269.9,171.6 269.5,170.9 264.5,164.8C260.2,159.6 258.1,157.9 255.5,157.4C253.6,157.1 250.8,157.1 249.3,157.5C247.8,157.8 246.1,158.8 245.5,159.7C244.6,161.0 243.9,161.0 242.1,160.1C240.4,159.2 238.6,159.1 234.5,160.0C231.5,160.6 228.4,161.7 227.7,162.5C226.9,163.2 225.2,163.6 223.6,163.3C222.2,163.0 215.8,163.8 209.5,165.0C203.2,166.2 198.0,167.6 198.0,168.0C198.0,168.5 200.3,172.2 203.1,176.4C205.9,180.6 208.7,184.0 209.3,184.0zM196.0,163.0C196.8,163.0 202.4,162.1 208.5,161.0C214.6,159.9 219.6,159.0 219.8,159.0C219.9,159.0 220.0,158.4 220.0,157.6C220.0,156.8 218.2,153.4 216.0,150.1C213.8,146.8 211.2,143.9 210.1,143.5C209.0,143.2 204.4,143.6 199.9,144.5C195.5,145.3 190.5,146.0 188.9,146.0C187.0,146.0 186.0,146.5 186.0,147.4C186.0,148.2 187.9,152.1 190.2,155.9C192.6,159.8 195.2,163.0 196.0,163.0zM231.0,156.5C234.6,156.2 237.9,155.5 238.4,155.0C238.9,154.5 238.1,152.2 236.6,149.6C235.1,147.1 234.1,145.0 234.4,145.0C234.7,145.0 236.3,147.0 238.1,149.5C241.2,153.8 241.5,154.0 246.4,154.0C249.2,154.0 252.1,153.6 252.9,153.1C254.1,152.3 253.9,151.5 251.7,148.3C250.3,146.2 247.8,143.0 246.2,141.1C243.8,138.2 242.7,137.7 239.5,137.8C237.4,137.9 234.7,138.6 233.6,139.4C232.0,140.4 230.9,140.5 229.6,139.8C228.4,139.1 225.9,139.3 221.4,140.6C217.8,141.5 214.7,142.7 214.4,143.1C214.1,143.6 215.8,146.6 218.2,149.7C220.6,152.9 222.9,155.9 223.5,156.3C224.0,156.7 227.4,156.8 231.0,156.5zM119.2,127.0C120.2,127.0 122.5,126.3 124.1,125.4C126.9,124.0 127.1,123.5 126.8,119.2C126.5,115.0 126.2,114.5 123.9,114.2C121.9,114.0 120.7,114.7 118.7,117.4C117.2,119.3 116.0,121.5 116.0,122.4C116.0,123.2 116.3,124.5 116.6,125.4C116.9,126.3 118.1,127.0 119.2,127.0zM210.2,106.3C209.8,106.5 207.5,106.2 205.0,105.8C202.5,105.3 199.2,104.5 197.5,104.2C195.4,103.7 194.4,102.7 194.2,101.2C194.0,99.9 194.6,97.8 195.4,96.4C196.5,94.8 198.0,94.0 200.0,94.0C202.2,94.0 204.1,95.1 207.0,98.0C209.2,100.2 211.0,102.9 211.0,103.9C211.0,105.0 210.7,106.1 210.2,106.3zM159.4,103.6C156.1,103.9 152.7,103.6 151.8,103.0C150.8,102.4 150.0,101.1 150.0,100.2C150.0,99.2 151.1,96.8 152.5,94.7C154.6,91.7 155.7,91.0 158.3,91.0C160.1,91.0 162.9,91.9 164.7,92.9C166.4,94.0 168.1,95.8 168.5,97.0C169.0,98.6 168.6,99.8 167.2,101.2C165.9,102.6 163.5,103.3 159.4,103.6zM236.4,97.8C238.0,97.6 238.6,96.7 238.8,94.2C239.0,92.1 238.6,90.8 237.7,90.4C236.9,90.1 234.4,90.0 232.1,90.2C227.9,90.5 227.9,90.5 231.1,94.3C233.3,96.9 234.9,98.0 236.4,97.8zM172.1,85.0C169.0,85.0 165.4,84.4 164.0,83.7C162.3,82.9 161.4,81.5 161.2,79.4C161.0,77.5 161.7,75.4 163.0,73.7C164.2,72.2 166.1,71.0 167.3,71.0C168.4,71.0 171.4,72.0 173.8,73.1C177.0,74.7 178.6,76.3 179.7,78.8C181.1,82.1 181.0,82.5 179.4,83.7C178.4,84.4 175.1,85.0 172.1,85.0zM206.1,75.0C207.1,75.0 208.1,74.1 208.5,73.0C208.8,71.9 208.8,70.6 208.5,70.0C208.2,69.5 206.6,69.0 205.0,69.0C203.4,69.0 201.8,69.5 201.5,70.1C201.1,70.6 201.6,72.0 202.6,73.1C203.5,74.1 205.1,75.0 206.1,75.0z" />

</svg>